<svg xmlns="http://www.w3.org/2000/svg" xmlns:xlink="http://www.w3.org/1999/xlink" width="90" height="90" version="1.1" viewBox="0 0 90 90"><title>logo_kubify</title><desc>Created with Sketch.</desc><defs><path id="path-1" d="M41.8864954,0.994901575 C42.8830405,0.514990742 44.5028956,0.516982644 45.4953045,0.994901575 L76.8159138,16.0781121 C77.8124589,16.5580229 78.8208647,17.8257185 79.0659694,18.8995926 L86.8015211,52.7912589 C87.0476474,53.8696088 86.6852538,55.4484075 85.9984855,56.3095876 L64.3239514,83.4885938 C63.6343208,84.3533632 62.1740175,85.0543973 61.0725268,85.0543973 L26.3092731,85.0543973 C25.2031915,85.0543973 23.7446167,84.3497739 23.0578485,83.4885938 L1.38331434,56.3095876 C0.693683723,55.4448182 0.335174016,53.865133 0.580278769,52.7912589 L8.31583044,18.8995926 C8.56195675,17.8212428 9.57347722,16.556031 10.5658861,16.0781121 L41.8864954,0.994901575 Z"/><linearGradient id="linearGradient-3" x1="75.524%" x2="15.748%" y1="50%" y2="76.003%"><stop offset="0%" stop-color="#FBFDFB"/><stop offset="100%" stop-color="#A7CBA9"/></linearGradient><path id="path-4" d="M17.6360001,47.6547852 C29.9905031,47.6547852 36.9667969,35.9467773 33.3637695,25 C31.7897872,20.2179007 26.4814903,12.1435192 17.438879,0.776855469 C8.027928,12.0798542 2.6965764,20.1542357 1.44482422,25 C-1.96289062,38.1918945 4.77383904,47.6547852 17.6360001,47.6547852 Z"/><linearGradient id="linearGradient-6" x1="115.563%" x2="26.221%" y1="33.078%" y2="137.553%"><stop offset="0%" stop-color="#FFF"/><stop offset="100%" stop-color="#B4D3B5"/></linearGradient><linearGradient id="linearGradient-7" x1="68.021%" x2="50%" y1="34.339%" y2="88.456%"><stop offset="0%" stop-color="#FFF"/><stop offset="100%" stop-color="#BCD8BD"/></linearGradient><polygon id="path-8" points="-1.987 6.38 18 25.763 18 42.397 -1.987 23.967"/><filter id="filter-9" width="180.1%" height="144.4%" x="-50%" y="-33.3%" filterUnits="objectBoundingBox"><feOffset dx="-2" dy="-4" in="SourceAlpha" result="shadowOffsetOuter1"/><feGaussianBlur in="shadowOffsetOuter1" result="shadowBlurOuter1" stdDeviation="2"/><feColorMatrix in="shadowBlurOuter1" type="matrix" values="0 0 0 0 0.733333333 0 0 0 0 0.843137255 0 0 0 0 0.737254902 0 0 0 1 0"/></filter><linearGradient id="linearGradient-10" x1="64.009%" x2="35.338%" y1="27.933%" y2="56.357%"><stop offset="0%" stop-color="#FFF"/><stop offset="100%" stop-color="#BEDABF"/></linearGradient><polygon id="path-11" points="-1.987 22.38 18 41.763 18 54.969 -1.987 39.967"/><filter id="filter-12" width="170%" height="143%" x="-45%" y="-27.6%" filterUnits="objectBoundingBox"><feOffset dx="-2" dy="-2" in="SourceAlpha" result="shadowOffsetOuter1"/><feGaussianBlur in="shadowOffsetOuter1" result="shadowBlurOuter1" stdDeviation="2"/><feColorMatrix in="shadowBlurOuter1" type="matrix" values="0 0 0 0 0.487093856 0 0 0 0 0.671210672 0 0 0 0 0.493033108 0 0 0 1 0"/></filter></defs><g id="Page-1" fill="none" fill-rule="evenodd" stroke="none" stroke-width="1"><g id="logo_kubify"><g id="Rectangle-2" transform="translate(1.000000, 2.000000)"><mask id="mask-2" fill="#fff"><use xlink:href="#path-1"/></mask><use id="Mask" fill="#009F76" xlink:href="#path-1"/><polygon fill="#000" points="-17.502 49.297 44 19.543 56.88 60.69 26.906 96.297" mask="url(#mask-2)" opacity=".29"/></g><g id="Group" transform="translate(45.500000, 44.000000) scale(-1, 1) translate(-45.500000, -44.000000) translate(28.000000, 20.000000)"><mask id="mask-5" fill="#fff"><use xlink:href="#path-4"/></mask><use id="Oval-2" fill="url(#linearGradient-3)" xlink:href="#path-4"/><polygon id="Rectangle" fill="url(#linearGradient-6)" points="-1.987 -21.62 18 -2.237 18 26.392 -3.366 6.274" mask="url(#mask-5)"/><g id="Rectangle" mask="url(#mask-5)"><use fill="#000" fill-opacity="1" filter="url(#filter-9)" xlink:href="#path-8"/><use fill="url(#linearGradient-7)" fill-rule="evenodd" xlink:href="#path-8"/></g><g id="Rectangle" mask="url(#mask-5)"><use fill="#000" fill-opacity="1" filter="url(#filter-12)" xlink:href="#path-11"/><use fill="url(#linearGradient-10)" fill-rule="evenodd" xlink:href="#path-11"/></g></g></g></g></svg>